<?xml version="1.0" encoding="UTF-8" standalone="no"?>
<svg
   width="64px"
   height="64px"
   id="svg2821"
   sodipodi:version="0.32"
   inkscape:version="1.1-beta1 (77e7b44db3, 2021-03-28)"
   sodipodi:docname="Assembly_CreateMarker.svg"
   inkscape:output_extension="org.inkscape.output.svg.inkscape"
   version="1.1"
   xml:space="preserve"
   xmlns:inkscape="http://www.inkscape.org/namespaces/inkscape"
   xmlns:sodipodi="http://sodipodi.sourceforge.net/DTD/sodipodi-0.dtd"
   xmlns:xlink="http://www.w3.org/1999/xlink"
   xmlns="http://www.w3.org/2000/svg"
   xmlns:svg="http://www.w3.org/2000/svg"
   xmlns:rdf="http://www.w3.org/1999/02/22-rdf-syntax-ns#"
   xmlns:cc="http://creativecommons.org/ns#"
   xmlns:dc="http://purl.org/dc/elements/1.1/"><defs
     id="defs2823"><radialGradient
       inkscape:collect="always"
       xlink:href="#linearGradient3377"
       id="radialGradient3701"
       gradientUnits="userSpaceOnUse"
       cx="84.883324"
       cy="77.042847"
       fx="84.883324"
       fy="77.042847"
       r="19.467436"
       gradientTransform="matrix(2.8492421,1.2585119,-0.4040415,0.9147407,-125.84131,-100.25805)" /><linearGradient
       id="linearGradient3377"><stop
         id="stop3379"
         offset="0"
         style="stop-color:#faff2b;stop-opacity:1;" /><stop
         id="stop3381"
         offset="1"
         style="stop-color:#ffaa00;stop-opacity:1;" /></linearGradient><radialGradient
       inkscape:collect="always"
       xlink:href="#linearGradient3377"
       id="radialGradient3699"
       gradientUnits="userSpaceOnUse"
       cx="76.383331"
       cy="94.369568"
       fx="76.383331"
       fy="94.369568"
       r="19.467436"
       gradientTransform="matrix(0.9818943,0.1894295,-0.4109427,2.1300924,40.163453,-121.11559)" /><inkscape:perspective
       sodipodi:type="inkscape:persp3d"
       inkscape:vp_x="0 : 32 : 1"
       inkscape:vp_y="0 : 1000 : 0"
       inkscape:vp_z="64 : 32 : 1"
       inkscape:persp3d-origin="32 : 21.333333 : 1"
       id="perspective2829" /><linearGradient
       inkscape:collect="always"
       xlink:href="#linearGradient3801-5"
       id="linearGradient3807-7"
       x1="110"
       y1="35"
       x2="85"
       y2="35"
       gradientUnits="userSpaceOnUse"
       spreadMethod="reflect"
       gradientTransform="translate(-62,-16)" /><linearGradient
       inkscape:collect="always"
       id="linearGradient3801-5"><stop
         style="stop-color:#c4a000;stop-opacity:1"
         offset="0"
         id="stop3803-3" /><stop
         style="stop-color:#fce94f;stop-opacity:1"
         offset="1"
         id="stop3805-5" /></linearGradient><linearGradient
       xlink:href="#linearGradient3838"
       id="linearGradient3844"
       x1="2802.9631"
       y1="538.36249"
       x2="2859.7263"
       y2="786.05646"
       gradientUnits="userSpaceOnUse" /><linearGradient
       id="linearGradient3838"><stop
         style="stop-color:#34e0e2;stop-opacity:1"
         offset="0"
         id="stop3840" /><stop
         style="stop-color:#06989a;stop-opacity:1"
         offset="1"
         id="stop3842" /></linearGradient><linearGradient
       y2="786.05646"
       x2="2859.7263"
       y1="538.36249"
       x1="2802.9631"
       gradientUnits="userSpaceOnUse"
       id="linearGradient3045"
       xlink:href="#linearGradient3172" /><linearGradient
       id="linearGradient3172"><stop
         id="stop3174"
         offset="0"
         style="stop-color:#ef2929;stop-opacity:1" /><stop
         id="stop3176"
         offset="1"
         style="stop-color:#a40000;stop-opacity:1" /></linearGradient><linearGradient
       xlink:href="#linearGradient3172"
       id="linearGradient3880"
       gradientUnits="userSpaceOnUse"
       x1="2802.9631"
       y1="626.0874"
       x2="2849.4058"
       y2="822.17853" /><linearGradient
       id="linearGradient3602"><stop
         style="stop-color:#ff2600;stop-opacity:1"
         offset="0"
         id="stop3604" /><stop
         style="stop-color:#ff5f00;stop-opacity:1"
         offset="1"
         id="stop3606" /></linearGradient><linearGradient
       xlink:href="#linearGradient3602-7"
       id="linearGradient3608-5"
       x1="3.909091"
       y1="14.363636"
       x2="24.81818"
       y2="14.363636"
       gradientUnits="userSpaceOnUse" /><linearGradient
       id="linearGradient3602-7"><stop
         style="stop-color:#c51900;stop-opacity:1"
         offset="0"
         id="stop3604-1" /><stop
         style="stop-color:#ff5f00;stop-opacity:1"
         offset="1"
         id="stop3606-3" /></linearGradient><linearGradient
       xlink:href="#linearGradient3602"
       id="linearGradient3608"
       x1="3.909091"
       y1="14.363636"
       x2="24.81818"
       y2="14.363636"
       gradientUnits="userSpaceOnUse" /></defs><sodipodi:namedview
     id="base"
     pagecolor="#ffffff"
     bordercolor="#666666"
     borderopacity="1.0"
     inkscape:pageopacity="0.0"
     inkscape:pageshadow="2"
     inkscape:zoom="2.828427"
     inkscape:cx="-13.96536"
     inkscape:cy="-31.996583"
     inkscape:current-layer="layer1"
     showgrid="true"
     inkscape:document-units="px"
     inkscape:grid-bbox="true"
     inkscape:window-width="3840"
     inkscape:window-height="1571"
     inkscape:window-x="-9"
     inkscape:window-y="-9"
     inkscape:window-maximized="1"
     inkscape:showpageshadow="2"
     inkscape:pagecheckerboard="0"
     inkscape:deskcolor="#d1d1d1"
     objecttolerance="10.0"
     gridtolerance="10.0"
     guidetolerance="10.0"><inkscape:grid
       type="xygrid"
       id="grid2992"
       empspacing="2"
       visible="true"
       enabled="true"
       snapvisiblegridlinesonly="true"
       originx="0"
       originy="0"
       spacingy="1"
       spacingx="1"
       units="px" /></sodipodi:namedview><metadata
     id="metadata2826"><rdf:RDF><cc:Work
         rdf:about=""><dc:format>image/svg+xml</dc:format><dc:type
           rdf:resource="http://purl.org/dc/dcmitype/StillImage" /><dc:creator><cc:Agent><dc:title>[wmayer]</dc:title></cc:Agent></dc:creator><dc:title>Part_Cylinder</dc:title><dc:date>2011-10-10</dc:date><dc:relation>https://www.freecad.org/wiki/index.php?title=Artwork</dc:relation><dc:publisher><cc:Agent><dc:title>FreeCAD</dc:title></cc:Agent></dc:publisher><dc:identifier>FreeCAD/src/Mod/Part/Gui/Resources/icons/Part_Cylinder.svg</dc:identifier><dc:rights><cc:Agent><dc:title>FreeCAD LGPL2+</dc:title></cc:Agent></dc:rights><cc:license>https://www.gnu.org/copyleft/lesser.html</cc:license><dc:contributor><cc:Agent><dc:title>[agryson] Alexander Gryson</dc:title></cc:Agent></dc:contributor></cc:Work></rdf:RDF></metadata><g
     id="layer1"
     inkscape:label="Layer 1"
     inkscape:groupmode="layer"><g
       id="g1216"
       transform="matrix(0.05667765,0,0,0.05667765,30.934118,27.479461)"><g
         id="#3333ccff"
         transform="matrix(1.3333333,0,0,1.3333333,-606,-485.99997)"><path
           fill="#3333cc"
           opacity="1"
           d="m 453.31,60.46 c 3.15,-0.82 6.46,-0.36 9.69,-0.47 9.29,0.15 18.6,-0.24 27.88,0.18 3.07,2.14 6.13,5.75 5.63,9.81 -0.02,13.31 -0.07,26.62 0.02,39.93 0.39,7.34 0.23,14.7 -0.07,22.04 -0.17,67.2 -0.41,134.41 -0.56,201.61 -0.2,46.29 -0.26,92.57 -0.32,138.86 -3.47,1.04 -6.79,2.91 -10.52,2.66 -9.71,-0.09 -19.42,-0.11 -29.12,-0.04 -3.57,0.14 -6.73,-1.7 -10.1,-2.53 -0.66,-15.15 -0.03,-30.34 -0.2,-45.51 0.06,-31.09 0.09,-62.18 0.26,-93.27 0.14,-58.58 0.35,-117.16 0.48,-175.74 0.31,-17.32 -0.44,-34.65 0.14,-51.97 0.06,-13.34 -0.15,-26.68 0.1,-40.02 2.17,-1.91 4.08,-4.2 6.69,-5.54 z"
           id="path2" /></g><g
         id="#d9dad4ff"
         transform="matrix(1.3333333,0,0,1.3333333,-606,-485.99997)"><path
           fill="#d9dad4"
           opacity="1"
           d="m 417.32,337.05 c 9.48,-1.46 19.02,-2.68 28.58,-3.32 -0.17,31.09 -0.2,62.18 -0.26,93.27 0.17,15.17 -0.46,30.36 0.2,45.51 3.37,0.83 6.53,2.67 10.1,2.53 9.7,-0.07 19.41,-0.05 29.12,0.04 3.73,0.25 7.05,-1.62 10.52,-2.66 0.06,-46.29 0.12,-92.57 0.32,-138.86 11.41,-0.22 22.73,1.77 34.03,3.2 40.89,6.52 81.29,20.07 115.47,43.87 17.18,12.19 32.8,27.09 43.83,45.16 8.96,14.81 14.77,31.83 15.16,49.21 1.18,28.4 -11.91,55.88 -31.17,76.2 -24.82,26.77 -58,44.34 -92.28,55.86 -27.77,8.99 -56.74,14.33 -85.87,15.75 -10.31,1.18 -20.72,0.28 -31.07,0.58 -47.65,-1.6 -95.73,-11.78 -138.07,-34.31 -17.45,-9.43 -33.96,-20.93 -47.69,-35.33 -18.95,-19.06 -32.53,-44.57 -33.63,-71.75 -0.98,-20.45 5.34,-40.87 16.33,-58.02 8.94,-14.29 20.98,-26.42 34.07,-36.93 35.21,-27.51 78.57,-42.79 122.31,-50 z"
           id="path5" /></g><g
         id="#cd3333ff"
         transform="matrix(1.3333333,0,0,1.3333333,-606,-485.99997)"><path
           fill="#cd3333"
           opacity="1"
           d="m 171.58,623.56 c 27.11,-18.53 53.95,-37.46 81.22,-55.75 9.45,13.64 18.93,27.26 28.22,41.01 -61.35,42.41 -122.83,84.63 -184.19,127 -3.29,2.6 -7.72,2.76 -11.72,2.37 -1.74,-1 -2.65,-2.92 -3.83,-4.46 -6.43,-9.69 -13.37,-19.03 -19.62,-28.83 0.97,-2.65 0.65,-6.22 3.34,-7.88 35.51,-24.5 71.06,-48.97 106.58,-73.46 z"
           id="path8" /></g><g
         id="#33cd33ff"
         transform="matrix(1.3333333,0,0,1.3333333,-606,-485.99997)"><path
           fill="#33cd33"
           opacity="1"
           d="m 681.37,570.24 c 49.98,31.36 99.6,63.33 149.45,94.92 14.8,9.56 29.87,18.76 44.53,28.53 2.03,4.05 1.35,9.53 -1.45,13.17 -5.61,8.44 -10.67,17.27 -16.52,25.54 -3.35,2.17 -8.46,3.52 -12.09,1.27 -58.02,-36.97 -116.07,-73.88 -174.1,-110.83 -5.41,-3.66 -11.24,-6.72 -16.39,-10.74 8.85,-13.96 17.83,-27.83 26.57,-41.86 z"
           id="path11" /></g></g></g></svg>
